<svg width="126" height="42" viewBox="0 0 126 42" fill="none" xmlns="http://www.w3.org/2000/svg">
<g clip-path="url(#clip0_18_2055)">
<path d="M115.966 -0.000107641H10.0395C9.6534 -0.000107641 9.27192 -0.000107641 8.88683 0.00199236C8.56447 0.00409236 8.24467 0.0101929 7.91922 0.0153274C7.21218 0.0236243 6.5068 0.0856524 5.80922 0.200873C5.11261 0.318602 4.43783 0.540554 3.80769 0.859223C3.17832 1.18059 2.60325 1.59817 2.10334 2.09682C1.6008 2.59406 1.1819 3.16881 0.862733 3.79896C0.54269 4.42786 0.320771 5.10178 0.20464 5.79745C0.0874062 6.49224 0.0243214 7.19504 0.0159522 7.89955C0.0061808 8.22148 0.00514891 8.54448 0 8.86645V33.1364C0.00514891 33.4624 0.0061808 33.7783 0.0159522 34.1044C0.024324 34.8089 0.0874088 35.5117 0.20464 36.2064C0.32045 36.9025 0.542382 37.5768 0.862733 38.2059C1.18175 38.834 1.60071 39.4065 2.10334 39.9009C2.60135 40.4018 3.1768 40.8197 3.80769 41.1386C4.43782 41.4581 5.11253 41.6814 5.80922 41.8009C6.50692 41.9152 7.21223 41.9773 7.91922 41.9866C8.24467 41.9937 8.56447 41.9978 8.88683 41.9978C9.27191 41.9999 9.65342 41.9999 10.0395 41.9999H115.966C116.345 41.9999 116.729 41.9999 117.108 41.9978C117.428 41.9978 117.757 41.9937 118.078 41.9866C118.784 41.9778 119.488 41.9157 120.184 41.8009C120.883 41.6805 121.56 41.4573 122.193 41.1386C122.824 40.8195 123.399 40.4016 123.896 39.9009C124.398 39.4045 124.817 38.8325 125.14 38.2059C125.458 37.5763 125.678 36.9021 125.792 36.2064C125.91 35.5116 125.975 34.8089 125.988 34.1044C125.992 33.7783 125.992 33.4624 125.992 33.1364C126 32.755 126 32.3756 126 31.9879V10.0128C126 9.62831 126 9.24686 125.992 8.86645C125.992 8.54448 125.992 8.22148 125.988 7.8995C125.975 7.19494 125.91 6.49229 125.792 5.7974C125.678 5.10214 125.458 4.42827 125.14 3.79892C124.49 2.53585 123.46 1.50772 122.193 0.859128C121.56 0.541238 120.883 0.319345 120.184 0.200778C119.488 0.0850503 118.784 0.0230005 118.078 0.0151804C117.757 0.0100564 117.428 0.00390336 117.108 0.00185586C116.729 -0.000244141 116.345 -0.000244141 115.966 -0.000244141V-0.000107641Z" fill="#A6A6A6"/>
<path d="M8.89192 41.0812C8.57111 41.0812 8.25805 41.0771 7.93975 41.07C7.28037 41.0614 6.62254 41.0042 5.97164 40.8987C5.36471 40.7945 4.77676 40.6006 4.22718 40.3234C3.68264 40.0486 3.18598 39.6881 2.75621 39.256C2.32023 38.8289 1.95726 38.3336 1.68167 37.7897C1.40305 37.2422 1.21023 36.6553 1.10992 36.0496C1.0016 35.3987 0.942991 34.7406 0.934605 34.0809C0.927929 33.8594 0.919189 33.1221 0.919189 33.1221V8.86651C0.919189 8.86651 0.928498 8.14053 0.934657 7.92724C0.942687 7.26856 1.00095 6.61144 1.10895 5.96157C1.20944 5.35416 1.40242 4.76564 1.68119 4.21636C1.95576 3.67279 2.31672 3.1771 2.75008 2.74852C3.18295 2.31585 3.6812 1.95359 4.22667 1.67492C4.77498 1.39865 5.36182 1.20612 5.96753 1.10378C6.62056 0.997279 7.28068 0.939697 7.94234 0.931522L8.89244 0.918701H117.102L118.064 0.932036C118.719 0.939805 119.374 0.996874 120.021 1.10276C120.632 1.20638 121.225 1.40025 121.78 1.678C122.873 2.23959 123.762 3.12807 124.323 4.21893C124.597 4.76441 124.787 5.34813 124.886 5.95029C124.996 6.60549 125.057 7.26778 125.069 7.93186C125.072 8.22922 125.072 8.54863 125.072 8.86651C125.081 9.26026 125.081 9.63504 125.081 10.0129V31.988C125.081 32.3695 125.081 32.7417 125.072 33.117C125.072 33.4584 125.072 33.7712 125.068 34.0931C125.056 34.7454 124.996 35.3958 124.888 36.0393C124.79 36.6494 124.598 37.2408 124.32 37.7928C124.042 38.3309 123.681 38.8219 123.25 39.2478C122.82 39.6823 122.323 40.0448 121.777 40.3214C121.224 40.6007 120.632 40.7953 120.021 40.8987C119.37 41.0047 118.712 41.062 118.052 41.07C117.744 41.0771 117.421 41.0812 117.107 41.0812L115.966 41.0833L8.89192 41.0812Z" fill="black"/>
<path d="M26.0803 21.3157C26.0916 20.4393 26.3251 19.58 26.7589 18.8177C27.1928 18.0555 27.8129 17.4151 28.5616 16.956C28.086 16.2786 27.4585 15.7211 26.729 15.3278C25.9995 14.9346 25.188 14.7163 24.3592 14.6905C22.591 14.5054 20.8769 15.7455 19.9758 15.7455C19.0574 15.7455 17.6701 14.7088 16.1763 14.7395C15.21 14.7706 14.2683 15.0508 13.4429 15.5528C12.6176 16.0547 11.9366 16.7613 11.4665 17.6037C9.43013 21.1196 10.9491 26.2867 12.8998 29.1286C13.8758 30.5203 15.0164 32.0747 16.5089 32.0196C17.9694 31.9592 18.5149 31.0909 20.2778 31.0909C22.0244 31.0909 22.5362 32.0196 24.059 31.9846C25.6262 31.9592 26.6136 30.5867 27.5553 29.182C28.2565 28.1904 28.7961 27.0945 29.1541 25.9348C28.2436 25.5508 27.4666 24.908 26.92 24.0866C26.3734 23.2652 26.0814 22.3015 26.0803 21.3157Z" fill="white"/>
<path d="M23.2041 12.8214C24.0586 11.7985 24.4796 10.4837 24.3776 9.15625C23.0721 9.29298 21.8663 9.91517 21.0002 10.8988C20.5768 11.3794 20.2525 11.9384 20.0458 12.5441C19.8392 13.1497 19.7543 13.7899 19.7959 14.4283C20.4489 14.435 21.0949 14.2939 21.6853 14.0155C22.2756 13.7372 22.7949 13.3289 23.2041 12.8214Z" fill="white"/>
<path d="M44.5421 28.4968H39.5581L38.3612 32.0211H36.2501L40.9709 18.9822H43.1642L47.885 32.0211H45.7379L44.5421 28.4968ZM40.0743 26.8705H44.0249L42.0774 21.1509H42.0229L40.0743 26.8705Z" fill="white"/>
<path d="M58.0802 27.2683C58.0802 30.2224 56.4947 32.1204 54.1019 32.1204C53.4957 32.152 52.8929 32.0128 52.3625 31.7187C51.832 31.4245 51.3953 30.9873 51.1024 30.4572H51.0571V35.1658H49.1003V22.5145H50.9944V24.0957H51.0304C51.3368 23.5681 51.7809 23.1332 52.3154 22.8373C52.8499 22.5413 53.4548 22.3954 54.0659 22.4151C56.4854 22.4151 58.0802 24.3223 58.0802 27.2683ZM56.0689 27.2683C56.0689 25.3436 55.0715 24.0783 53.5497 24.0783C52.0546 24.0783 51.0489 25.3703 51.0489 27.2683C51.0489 29.1837 52.0546 30.4665 53.5497 30.4665C55.0715 30.4665 56.0689 29.2104 56.0689 27.2683Z" fill="white"/>
<path d="M68.5727 27.2683C68.5727 30.2224 66.9871 32.1204 64.5943 32.1204C63.9882 32.152 63.3854 32.0128 62.8549 31.7186C62.3244 31.4245 61.8877 30.9873 61.5948 30.4572H61.5496V35.1658H59.5928V22.5145H61.4868V24.0957H61.5228C61.8292 23.5681 62.2732 23.1332 62.8078 22.8373C63.3423 22.5413 63.9472 22.3954 64.5583 22.4151C66.9778 22.4151 68.5727 24.3223 68.5727 27.2683ZM66.5614 27.2683C66.5614 25.3436 65.564 24.0783 64.0421 24.0783C62.547 24.0783 61.5414 25.3703 61.5414 27.2683C61.5414 29.1837 62.547 30.4665 64.0421 30.4665C65.564 30.4665 66.5614 29.2103 66.5614 27.2683H66.5614Z" fill="white"/>
<path d="M75.5074 28.388C75.6524 29.681 76.912 30.53 78.6333 30.53C80.2827 30.53 81.4693 29.681 81.4693 28.5151C81.4693 27.503 80.7536 26.897 79.059 26.4817L77.3644 26.0747C74.9634 25.4963 73.8488 24.3766 73.8488 22.5596C73.8488 20.3099 75.8148 18.7646 78.6066 18.7646C81.3695 18.7646 83.2636 20.3099 83.3274 22.5596H81.352C81.2338 21.2584 80.1551 20.473 78.5788 20.473C77.0025 20.473 75.9238 21.2676 75.9238 22.4243C75.9238 23.3461 76.6127 23.8885 78.2981 24.3038L79.7387 24.6565C82.4214 25.2892 83.5361 26.3638 83.5361 28.271C83.5361 30.7104 81.5875 32.2382 78.4883 32.2382C75.5886 32.2382 73.6308 30.7463 73.5043 28.3879L75.5074 28.388Z" fill="white"/>
<path d="M87.7593 20.2649V22.5146H89.5721V24.0599H87.7593V29.3006C87.7593 30.1148 88.1222 30.4942 88.9191 30.4942C89.1344 30.4904 89.3492 30.4754 89.5628 30.449V31.9851C89.2045 32.0518 88.8404 32.0821 88.476 32.0753C86.5459 32.0753 85.7932 31.3524 85.7932 29.5088V24.0599H84.4071V22.5146H85.7932V20.2649H87.7593Z" fill="white"/>
<path d="M90.6219 27.2683C90.6219 24.2772 92.3885 22.3977 95.1433 22.3977C97.9072 22.3977 99.6656 24.2772 99.6656 27.2683C99.6656 30.2676 97.9165 32.1389 95.1433 32.1389C92.371 32.1389 90.6219 30.2676 90.6219 27.2683ZM97.6718 27.2683C97.6718 25.2165 96.7288 24.0055 95.1432 24.0055C93.5576 24.0055 92.6158 25.2257 92.6158 27.2683C92.6158 29.3283 93.5576 30.5301 95.1432 30.5301C96.7288 30.5301 97.6717 29.3283 97.6717 27.2683H97.6718Z" fill="white"/>
<path d="M101.279 22.5145H103.145V24.1325H103.191C103.317 23.6272 103.614 23.1806 104.031 22.8678C104.449 22.555 104.962 22.3951 105.484 22.415C105.709 22.4142 105.934 22.4386 106.154 22.4878V24.313C105.869 24.2262 105.572 24.1864 105.275 24.1951C104.991 24.1836 104.707 24.2336 104.444 24.3416C104.181 24.4496 103.944 24.6131 103.751 24.8209C103.557 25.0287 103.411 25.2758 103.322 25.5453C103.233 25.8148 103.204 26.1003 103.236 26.3822V32.0208H101.279L101.279 22.5145Z" fill="white"/>
<path d="M115.176 29.2289C114.913 30.9546 113.227 32.1389 111.071 32.1389C108.298 32.1389 106.577 30.286 106.577 27.3134C106.577 24.3316 108.307 22.3977 110.989 22.3977C113.626 22.3977 115.285 24.2044 115.285 27.0868V27.7554H108.552V27.8733C108.521 28.2231 108.565 28.5756 108.681 28.9072C108.797 29.2389 108.982 29.5421 109.225 29.7968C109.467 30.0514 109.761 30.2517 110.088 30.3844C110.414 30.517 110.764 30.5789 111.116 30.566C111.579 30.6092 112.043 30.5024 112.439 30.2615C112.836 30.0205 113.144 29.6584 113.318 29.2288L115.176 29.2289ZM108.561 26.3916H113.327C113.345 26.077 113.297 25.7622 113.187 25.467C113.076 25.1717 112.906 24.9023 112.687 24.6758C112.467 24.4492 112.203 24.2704 111.911 24.1504C111.619 24.0305 111.305 23.9721 110.989 23.9789C110.67 23.977 110.354 24.038 110.059 24.1585C109.765 24.279 109.497 24.4565 109.271 24.6808C109.045 24.9051 108.866 25.1718 108.744 25.4654C108.623 25.7591 108.56 26.0738 108.561 26.3916V26.3916Z" fill="white"/>
<path d="M39.829 9.16727C40.2392 9.13791 40.6509 9.19971 41.0343 9.34822C41.4176 9.49672 41.7632 9.72822 42.046 10.026C42.3288 10.3238 42.5418 10.6805 42.6696 11.0704C42.7975 11.4602 42.837 11.8735 42.7852 12.2803C42.7852 14.2819 41.7004 15.4324 39.829 15.4324H37.5596V9.16727H39.829ZM38.5354 14.5464H39.72C40.0131 14.5639 40.3065 14.516 40.5787 14.4061C40.8509 14.2963 41.0952 14.1273 41.2936 13.9114C41.4921 13.6956 41.6398 13.4383 41.726 13.1584C41.8122 12.8784 41.8347 12.5828 41.7919 12.2931C41.8316 12.0045 41.8068 11.7108 41.7193 11.4329C41.6318 11.155 41.4837 10.8998 41.2857 10.6857C41.0877 10.4716 40.8446 10.3038 40.5739 10.1943C40.3032 10.0849 40.0116 10.0365 39.72 10.0526H38.5354V14.5464Z" fill="white"/>
<path d="M43.8875 13.0662C43.8577 12.7555 43.8934 12.442 43.9922 12.1459C44.091 11.8497 44.2508 11.5774 44.4613 11.3464C44.6718 11.1154 44.9285 10.9309 45.2147 10.8046C45.5009 10.6783 45.8105 10.613 46.1235 10.613C46.4365 10.613 46.7461 10.6783 47.0323 10.8046C47.3186 10.9309 47.5752 11.1154 47.7857 11.3464C47.9962 11.5774 48.156 11.8497 48.2548 12.1459C48.3536 12.442 48.3893 12.7555 48.3595 13.0662C48.3898 13.3773 48.3546 13.6912 48.2561 13.9878C48.1575 14.2845 47.9978 14.5573 47.7873 14.7887C47.5767 15.0202 47.3199 15.2051 47.0333 15.3317C46.7468 15.4582 46.4369 15.5236 46.1235 15.5236C45.8101 15.5236 45.5002 15.4582 45.2137 15.3317C44.9271 15.2051 44.6703 15.0202 44.4597 14.7887C44.2492 14.5573 44.0895 14.2845 43.9909 13.9878C43.8924 13.6912 43.8572 13.3773 43.8875 13.0662ZM47.397 13.0662C47.397 12.0414 46.9353 11.442 46.125 11.442C45.3117 11.442 44.8541 12.0414 44.8541 13.0662C44.8541 14.0993 45.3117 14.694 46.125 14.694C46.9353 14.694 47.397 14.0952 47.397 13.0662H47.397Z" fill="white"/>
<path d="M54.3039 15.4324H53.3332L52.3533 11.9502H52.2792L51.3034 15.4324H50.342L49.035 10.7043H49.9841L50.8335 14.3121H50.9034L51.8782 10.7043H52.7759L53.7507 14.3121H53.8247L54.67 10.7043H55.6057L54.3039 15.4324Z" fill="white"/>
<path d="M56.705 10.7043H57.6057V11.4554H57.6756C57.7943 11.1856 57.9943 10.9595 58.248 10.8085C58.5016 10.6575 58.7961 10.5892 59.0905 10.6131C59.3212 10.5958 59.5529 10.6304 59.7683 10.7145C59.9838 10.7986 60.1774 10.93 60.3351 11.0989C60.4927 11.2678 60.6102 11.4699 60.6788 11.6902C60.7475 11.9105 60.7655 12.1434 60.7317 12.3716V15.4323H59.7959V12.6059C59.7959 11.8461 59.4648 11.4682 58.7728 11.4682C58.6162 11.461 58.4598 11.4875 58.3144 11.5462C58.1691 11.6048 58.0381 11.6941 57.9306 11.8079C57.8231 11.9217 57.7415 12.0573 57.6915 12.2055C57.6414 12.3537 57.6241 12.5109 57.6407 12.6664V15.4324H56.705L56.705 10.7043Z" fill="white"/>
<path d="M62.2227 8.85864H63.1584V15.4324H62.2227V8.85864Z" fill="white"/>
<path d="M64.459 13.0663C64.4293 12.7556 64.4649 12.4421 64.5638 12.1459C64.6626 11.8497 64.8224 11.5774 65.033 11.3464C65.2435 11.1154 65.5001 10.9309 65.7864 10.8046C66.0727 10.6783 66.3822 10.613 66.6953 10.613C67.0083 10.613 67.3179 10.6783 67.6041 10.8046C67.8904 10.9309 68.147 11.1154 68.3576 11.3464C68.5681 11.5774 68.7279 11.8497 68.8268 12.1459C68.9256 12.4421 68.9613 12.7556 68.9315 13.0663C68.9618 13.3774 68.9266 13.6913 68.828 13.988C68.7294 14.2846 68.5697 14.5574 68.3591 14.7888C68.1485 15.0203 67.8917 15.2052 67.6051 15.3318C67.3186 15.4583 67.0087 15.5237 66.6953 15.5237C66.3819 15.5237 66.0719 15.4583 65.7854 15.3318C65.4989 15.2052 65.242 15.0203 65.0314 14.7888C64.8208 14.5574 64.6611 14.2846 64.5625 13.988C64.464 13.6913 64.4287 13.3774 64.459 13.0663ZM67.9685 13.0663C67.9685 12.0414 67.5068 11.4421 66.6965 11.4421C65.8832 11.4421 65.4256 12.0414 65.4256 13.0663C65.4256 14.0994 65.8832 14.6941 66.6965 14.6941C67.5068 14.6941 67.9685 14.0953 67.9685 13.0663H67.9685Z" fill="white"/>
<path d="M69.9166 14.0953C69.9166 13.2442 70.5521 12.7535 71.6801 12.6838L72.9644 12.61V12.2019C72.9644 11.7025 72.6333 11.4205 71.9937 11.4205C71.4714 11.4205 71.1094 11.6118 71.0056 11.946H70.0997C70.1953 11.1339 70.9614 10.613 72.0369 10.613C73.2256 10.613 73.896 11.2031 73.896 12.2019V15.4324H72.9953V14.7679H72.9212C72.771 15.0063 72.5599 15.2006 72.3097 15.331C72.0595 15.4614 71.7791 15.5233 71.4971 15.5103C71.298 15.5309 71.0969 15.5097 70.9065 15.4481C70.7162 15.3865 70.5409 15.2857 70.392 15.1524C70.2431 15.0191 70.1239 14.8562 70.042 14.6741C69.9601 14.492 69.9174 14.2948 69.9166 14.0953ZM72.9644 13.6912V13.296L71.8066 13.3698C71.1536 13.4134 70.8575 13.6349 70.8575 14.0517C70.8575 14.4772 71.2277 14.7248 71.7367 14.7248C71.8858 14.7399 72.0365 14.7249 72.1797 14.6807C72.3229 14.6365 72.4557 14.564 72.5703 14.4676C72.6848 14.3711 72.7788 14.2527 72.8465 14.1194C72.9142 13.986 72.9543 13.8404 72.9644 13.6912Z" fill="white"/>
<path d="M75.1259 13.0663C75.1259 11.5724 75.896 10.6259 77.094 10.6259C77.3903 10.6123 77.6844 10.6831 77.9418 10.83C78.1993 10.9769 78.4095 11.1938 78.5479 11.4554H78.6179V8.85864H79.5536V15.4324H78.6569V14.6854H78.5829C78.4338 14.9453 78.2162 15.1595 77.9538 15.3049C77.6913 15.4503 77.394 15.5214 77.094 15.5103C75.8878 15.5104 75.1259 14.5639 75.1259 13.0663ZM76.0925 13.0663C76.0925 14.0692 76.5665 14.6726 77.3593 14.6726C78.148 14.6726 78.6354 14.0605 78.6354 13.0705C78.6354 12.0851 78.1428 11.4642 77.3593 11.4642C76.5716 11.4642 76.0924 12.0717 76.0924 13.0663H76.0925Z" fill="white"/>
<path d="M83.425 13.0662C83.3952 12.7555 83.4308 12.442 83.5296 12.1459C83.6285 11.8497 83.7883 11.5774 83.9988 11.3464C84.2093 11.1154 84.4659 10.9309 84.7522 10.8046C85.0384 10.6783 85.348 10.613 85.661 10.613C85.974 10.613 86.2835 10.6783 86.5698 10.8046C86.856 10.9309 87.1126 11.1154 87.3232 11.3464C87.5337 11.5774 87.6935 11.8497 87.7923 12.1459C87.8911 12.442 87.9268 12.7555 87.8969 13.0662C87.9273 13.3773 87.8921 13.6912 87.7936 13.9878C87.695 14.2845 87.5353 14.5573 87.3247 14.7887C87.1141 15.0202 86.8573 15.2051 86.5708 15.3317C86.2843 15.4582 85.9744 15.5236 85.661 15.5236C85.3476 15.5236 85.0377 15.4582 84.7511 15.3317C84.4646 15.2051 84.2078 15.0202 83.9972 14.7887C83.7866 14.5573 83.6269 14.2845 83.5284 13.9878C83.4298 13.6912 83.3946 13.3773 83.425 13.0662ZM86.9345 13.0662C86.9345 12.0414 86.4728 11.442 85.6625 11.442C84.8492 11.442 84.3916 12.0414 84.3916 13.0662C84.3916 14.0993 84.8492 14.694 85.6625 14.694C86.4728 14.694 86.9345 14.0952 86.9345 13.0662Z" fill="white"/>
<path d="M89.1525 10.7043H90.0532V11.4554H90.1232C90.2418 11.1856 90.4418 10.9595 90.6955 10.8085C90.9491 10.6575 91.2436 10.5892 91.5381 10.6131C91.7688 10.5958 92.0004 10.6304 92.2158 10.7145C92.4313 10.7986 92.625 10.93 92.7826 11.0989C92.9402 11.2678 93.0577 11.4699 93.1263 11.6902C93.195 11.9105 93.213 12.1434 93.1792 12.3716V15.4323H92.2435V12.6059C92.2435 11.8461 91.9124 11.4682 91.2203 11.4682C91.0637 11.461 90.9073 11.4875 90.762 11.5462C90.6166 11.6048 90.4857 11.6941 90.3781 11.8079C90.2706 11.9217 90.189 12.0573 90.139 12.2055C90.0889 12.3537 90.0716 12.5109 90.0882 12.6664V15.4324H89.1525V10.7043Z" fill="white"/>
<path d="M98.4665 9.5271V10.7258H99.4938V11.5117H98.4665V13.9429C98.4665 14.4382 98.6712 14.6551 99.137 14.6551C99.2562 14.6547 99.3754 14.6475 99.4938 14.6335V15.4108C99.3258 15.4408 99.1555 15.4567 98.9848 15.4585C97.9442 15.4585 97.5298 15.0934 97.5298 14.1819V11.5117H96.7771V10.7257H97.5298V9.5271H98.4665Z" fill="white"/>
<path d="M100.772 8.85864H101.699V11.4642H101.773C101.898 11.1919 102.103 10.9645 102.362 10.8129C102.621 10.6613 102.92 10.593 103.219 10.6172C103.449 10.6047 103.678 10.6429 103.891 10.7291C104.104 10.8152 104.295 10.9472 104.451 11.1155C104.607 11.2839 104.724 11.4845 104.793 11.703C104.863 11.9216 104.883 12.1527 104.852 12.3798V15.4324H103.915V12.61C103.915 11.8548 103.563 11.4724 102.901 11.4724C102.741 11.4592 102.579 11.4812 102.427 11.537C102.276 11.5927 102.139 11.6807 102.025 11.7949C101.911 11.909 101.824 12.0466 101.769 12.1979C101.714 12.3493 101.693 12.5108 101.708 12.671V15.4324H100.772L100.772 8.85864Z" fill="white"/>
<path d="M110.308 14.1558C110.181 14.588 109.906 14.9617 109.53 15.2118C109.154 15.4619 108.703 15.5723 108.254 15.5237C107.941 15.5319 107.631 15.4723 107.344 15.3489C107.057 15.2255 106.8 15.0413 106.592 14.8091C106.384 14.5769 106.228 14.3022 106.137 14.0042C106.046 13.7062 106.021 13.392 106.063 13.0833C106.022 12.7737 106.047 12.4587 106.138 12.1598C106.23 11.8609 106.384 11.585 106.591 11.3508C106.799 11.1166 107.054 10.9295 107.34 10.8022C107.626 10.6749 107.936 10.6105 108.25 10.6131C109.569 10.6131 110.365 11.5119 110.365 12.9966V13.3222H107.017V13.3745C107.002 13.548 107.024 13.7227 107.081 13.8872C107.138 14.0518 107.229 14.2027 107.348 14.3303C107.466 14.4578 107.611 14.5591 107.771 14.6278C107.932 14.6965 108.105 14.7309 108.279 14.729C108.503 14.7558 108.73 14.7156 108.931 14.6135C109.132 14.5115 109.298 14.3521 109.407 14.1558L110.308 14.1558ZM107.017 12.6321H109.411C109.423 12.4734 109.402 12.314 109.348 12.1642C109.294 12.0143 109.21 11.8773 109.1 11.762C108.99 11.6466 108.857 11.5555 108.71 11.4944C108.562 11.4333 108.404 11.4036 108.244 11.4073C108.083 11.4053 107.922 11.4356 107.772 11.4964C107.622 11.5572 107.486 11.6474 107.372 11.7615C107.257 11.8757 107.167 12.0115 107.106 12.161C107.045 12.3106 107.015 12.4707 107.017 12.6321H107.017Z" fill="white"/>
</g>
<defs>
<clipPath id="clip0_18_2055">
<rect width="126" height="42" fill="white"/>
</clipPath>
</defs>
</svg>
