<svg width="108" height="31" viewBox="0 0 108 31" fill="none" xmlns="http://www.w3.org/2000/svg">
<path d="M50.9314 26.3649H47.0411V7.89724H40.0753V4.30501H57.8972V7.89724H50.9314V26.3649Z" fill="#181818"/>
<path d="M68.7967 26.3648V24.3155C68.1933 25.0201 67.4581 25.5989 66.6328 26.0193C65.6376 26.5055 64.54 26.7426 63.4338 26.7103C62.6678 26.7123 61.9058 26.5993 61.1731 26.3749C60.4944 26.1709 59.8608 25.8385 59.3064 25.3955C58.7375 24.9377 58.2815 24.3542 57.974 23.6904C57.6664 23.0266 57.5156 22.3004 57.5332 21.5684V21.5047C57.5146 20.6881 57.6862 19.8784 58.0341 19.1401C58.3608 18.4771 58.8405 17.9021 59.4333 17.463C60.0743 16.9962 60.797 16.6549 61.5638 16.4568C62.4364 16.231 63.3341 16.1183 64.2352 16.1214C65.0917 16.109 65.9476 16.1718 66.7931 16.3092C67.4777 16.4334 68.1536 16.6014 68.8167 16.8123V16.4367C68.8167 15.2829 68.4661 14.4008 67.7649 13.7903C67.0636 13.1799 66.054 12.8746 64.7361 12.8746C63.8916 12.8644 63.0492 12.9602 62.2283 13.1597C61.4675 13.3579 60.722 13.6113 59.9977 13.9178L58.9625 10.8588C59.8745 10.4447 60.8195 10.1082 61.7875 9.8526C62.9283 9.58143 64.0984 9.45522 65.2704 9.47694C67.7393 9.47694 69.5692 10.0907 70.7602 11.3183C71.9512 12.5459 72.5479 14.2744 72.5501 16.5038V26.3648H68.7967ZM68.8902 19.3044C68.3356 19.0956 67.7634 18.9374 67.1805 18.8315C66.4932 18.7042 65.7956 18.6413 65.0968 18.6437C63.9013 18.6437 62.973 18.8751 62.3018 19.338C61.9787 19.5543 61.7167 19.8507 61.5411 20.1986C61.3656 20.5465 61.2826 20.934 61.3 21.3236V21.384C61.2828 21.7431 61.359 22.1006 61.5212 22.4211C61.6834 22.7417 61.926 23.0142 62.225 23.212C62.9012 23.6503 63.6947 23.8703 64.499 23.8425C65.0883 23.8482 65.675 23.7634 66.2388 23.591C66.743 23.4394 67.2166 23.1998 67.638 22.8833C68.0239 22.5915 68.3399 22.2168 68.563 21.7865C68.7877 21.3419 68.9023 20.8495 68.8969 20.3509L68.8902 19.3044Z" fill="#181818"/>
<path d="M92.7828 21.7329C92.3913 22.7499 91.8047 23.6798 91.0564 24.4698C90.3572 25.1977 89.5128 25.7692 88.5786 26.1468C87.6672 26.5215 86.6917 26.7141 85.7068 26.7137C84.5156 26.758 83.3374 26.4514 82.3174 25.8316C81.4623 25.2834 80.7086 24.5899 80.0901 23.7822L80.1235 26.3682H76.2933V3.35913H80.1235V12.499C80.7256 11.6192 81.4909 10.8642 82.3775 10.2753C83.3772 9.64938 84.5396 9.33646 85.7168 9.37638C86.6944 9.37655 87.6623 9.57031 88.5653 9.94657C89.4907 10.3278 90.3267 10.899 91.0197 11.6236C91.7667 12.4134 92.3571 13.3388 92.7594 14.3505C93.2201 15.5246 93.447 16.7781 93.4273 18.04C93.4494 19.301 93.2306 20.5546 92.7828 21.7329ZM89.2231 15.8229C88.9917 15.2038 88.6449 14.6346 88.2013 14.1459C87.7744 13.6859 87.2573 13.3197 86.6826 13.0704C86.1079 12.821 85.488 12.6938 84.862 12.6969C84.2256 12.6913 83.5948 12.8168 83.0087 13.0659C82.4261 13.3154 81.9027 13.6857 81.4726 14.1526C81.0213 14.6412 80.6646 15.2099 80.4207 15.8297C80.1508 16.5322 80.0181 17.2804 80.03 18.0333C80.0179 18.7873 80.1505 19.5367 80.4207 20.2403C80.6646 20.8601 81.0213 21.4288 81.4726 21.9173C81.9027 22.3842 82.4261 22.7546 83.0087 23.0041C83.5885 23.2617 84.2146 23.3975 84.8486 23.4032C85.4804 23.4066 86.106 23.2775 86.6852 23.0242C87.256 22.7754 87.769 22.4099 88.1913 21.9509C88.6359 21.4629 88.9828 20.8935 89.2131 20.2738C89.4715 19.5616 89.5983 18.808 89.5871 18.0501C89.6023 17.2916 89.479 16.5367 89.2231 15.8229Z" fill="#181818"/>
<path d="M107.556 23.7486C107.255 24.3849 106.809 24.941 106.254 25.372C105.667 25.8175 105.002 26.1485 104.293 26.3481C103.508 26.575 102.693 26.688 101.876 26.6835C100.642 26.6758 99.4174 26.4627 98.2527 26.0529C97.0218 25.6293 95.8704 25.0012 94.8466 24.1947L96.5362 21.6054C97.3712 22.2409 98.2921 22.7537 99.2711 23.1281C100.124 23.4588 101.029 23.6348 101.943 23.648C102.611 23.688 103.276 23.5167 103.843 23.1583C104.054 23.0135 104.225 22.818 104.342 22.5895C104.459 22.361 104.517 22.1069 104.511 21.8502V21.7865C104.515 21.4857 104.408 21.1939 104.21 20.9681C103.981 20.7118 103.704 20.5033 103.395 20.3543C103.016 20.164 102.62 20.008 102.213 19.8881L100.817 19.4621C100.209 19.2743 99.5973 19.0641 98.9806 18.8315C98.3844 18.6131 97.8222 18.3104 97.311 17.9326C96.8232 17.5717 96.4131 17.1153 96.1055 16.591C95.7701 15.9753 95.6074 15.2798 95.6346 14.5785V14.5148C95.6213 13.8053 95.7682 13.1021 96.0643 12.4578C96.3604 11.8135 96.7981 11.2451 97.3444 10.7951C97.9024 10.342 98.5417 10.0005 99.2277 9.78889C99.9738 9.55779 100.751 9.44463 101.532 9.45348C102.608 9.45762 103.677 9.62845 104.701 9.95995C105.734 10.2797 106.717 10.7462 107.619 11.3452L106.113 14.0553C105.35 13.5875 104.54 13.2019 103.696 12.9048C102.972 12.6386 102.209 12.4947 101.438 12.4789C100.832 12.4422 100.231 12.6085 99.7286 12.9518C99.5382 13.0871 99.3831 13.2666 99.2767 13.4751C99.1703 13.6836 99.1157 13.9149 99.1175 14.1492V14.2129C99.1162 14.356 99.1433 14.498 99.1972 14.6304C99.2511 14.7629 99.3307 14.8832 99.4314 14.9844C99.6724 15.2308 99.9536 15.4339 100.263 15.5848C100.648 15.7801 101.047 15.9482 101.455 16.0879C101.903 16.2455 102.37 16.3998 102.851 16.544C103.454 16.7363 104.061 16.9599 104.671 17.2149C105.256 17.4544 105.809 17.7665 106.317 18.1439C106.803 18.5077 107.214 18.9635 107.526 19.4856C107.854 20.0712 108.017 20.7357 107.997 21.4075V21.4511C108.024 22.2405 107.874 23.0261 107.556 23.7486Z" fill="#181818"/>
<path d="M30.4397 1.594C30.2512 4.40882 28.145 24.9349 6.8811 28.3217C10.5378 24.8016 12.332 19.6433 13.1121 14.9042C13.7553 10.7231 13.8809 6.47866 13.4858 2.26683C14.2627 2.31883 14.0287 2.9169 15.0103 2.95916C15.4491 2.95916 15.9854 2.35134 16.5737 2.35459C17.0482 2.35459 17.5748 2.98191 18.1306 2.97541C18.6214 2.97541 19.1252 2.32533 19.668 2.30583C20.2108 2.28633 20.7147 2.8909 21.251 2.86164C21.7873 2.83239 22.2261 2.16932 22.7559 2.12706C23.2857 2.08481 23.8382 2.66337 24.3616 2.61137C24.8849 2.55936 25.3139 1.87353 25.834 1.80528C26.354 1.73702 26.9488 2.27983 27.4592 2.19532C27.7692 2.09482 28.0473 1.91431 28.2652 1.67201C28.386 1.55985 28.519 1.46172 28.6618 1.37948C28.7295 1.34393 28.8016 1.31769 28.8763 1.30147C29.0386 1.27783 29.2042 1.29116 29.3606 1.34047C29.6498 1.44314 29.9451 1.52781 30.2447 1.594C30.3095 1.60241 30.375 1.60241 30.4397 1.594Z" fill="url(#paint0_linear_18_1968)"/>
<path d="M0 28.7931C0 28.7931 3.63066 18.9185 13.112 14.9043C12.3319 19.6433 10.5377 24.8017 6.88102 28.325C4.60471 28.6754 2.30278 28.8319 0 28.7931Z" fill="url(#paint1_linear_18_1968)"/>
<path d="M31.4141 23.3241V29.9703C31.4141 29.9983 31.403 30.0252 31.3832 30.045C31.3634 30.0648 31.3365 30.0759 31.3085 30.0759H24.6622C24.6484 30.0759 24.6346 30.0732 24.6218 30.0679C24.609 30.0626 24.5974 30.0548 24.5876 30.045C24.5778 30.0352 24.57 30.0236 24.5647 30.0107C24.5594 29.9979 24.5566 29.9842 24.5566 29.9703V28.4765C24.5566 28.4626 24.5594 28.4489 24.5647 28.4361C24.57 28.4233 24.5778 28.4116 24.5876 28.4018C24.5974 28.392 24.609 28.3842 24.6218 28.3789C24.6346 28.3736 24.6484 28.3709 24.6622 28.3709H29.6003C29.6286 28.3709 29.6558 28.3599 29.6761 28.3402C29.6964 28.3204 29.7082 28.2936 29.709 28.2653V23.3241C29.709 23.2958 29.7201 23.2686 29.7398 23.2483C29.7595 23.228 29.7864 23.2162 29.8146 23.2154H31.3085C31.3368 23.2162 31.3636 23.228 31.3834 23.2483C31.4031 23.2686 31.4141 23.2958 31.4141 23.3241Z" fill="#EB553C"/>
<path d="M8.3505 0.105594V1.59945C8.3505 1.62745 8.33938 1.65431 8.31957 1.67412C8.29977 1.69392 8.27291 1.70504 8.24491 1.70504H3.15151C3.12323 1.70585 3.09637 1.71766 3.07665 1.73796C3.05693 1.75826 3.04591 1.78545 3.04592 1.81374V6.90714C3.04511 6.93543 3.0333 6.96228 3.013 6.982C2.99271 7.00172 2.96552 7.01275 2.93722 7.01274H1.44336C1.41536 7.01274 1.3885 7.00161 1.3687 6.98181C1.34889 6.962 1.33777 6.93514 1.33777 6.90714V0.105594C1.33777 0.0775882 1.34889 0.0507305 1.3687 0.0309277C1.3885 0.0111248 1.41536 0 1.44336 0H8.26044C8.28567 0.00375044 8.3087 0.01651 8.32525 0.0359214C8.34181 0.0553327 8.35078 0.0800819 8.3505 0.105594Z" fill="#EB553C"/>
<defs>
<linearGradient id="paint0_linear_18_1968" x1="39.5212" y1="95.5086" x2="0.0562035" y2="93.5659" gradientUnits="userSpaceOnUse">
<stop stop-color="#FFB13C"/>
<stop offset="0.46875" stop-color="#FF6644"/>
<stop offset="1" stop-color="#EB553C"/>
</linearGradient>
<linearGradient id="paint1_linear_18_1968" x1="-29.3873" y1="-3.54689" x2="-3.8269" y2="-16.9134" gradientUnits="userSpaceOnUse">
<stop offset="0.243281" stop-color="#EB553C"/>
<stop offset="0.617075" stop-color="#EA322E"/>
<stop offset="1" stop-color="#A41F22"/>
</linearGradient>
</defs>
</svg>
